<svg width="334" height="69" viewBox="0 0 334 69" fill="none" xmlns="http://www.w3.org/2000/svg">
<path d="M6.528 16.368C4.608 16.368 3.12 15.84 2.064 14.784C1.056 13.68 0.552 12.36 0.552 10.824C0.552 10.44 0.600001 9.984 0.696001 9.456C0.840001 8.928 1.008 8.472 1.2 8.088C1.824 8.376 2.736 8.592 3.936 8.736C5.184 8.832 6.624 8.88 8.256 8.88C10.704 8.88 13.464 8.784 16.536 8.592C19.656 8.352 22.632 8.112 25.464 7.872C28.296 7.632 30.792 7.416 32.952 7.224C35.112 6.984 36.504 6.864 37.128 6.864C38.904 6.864 40.176 7.536 40.944 8.88C41.76 10.176 42.36 11.928 42.744 14.136C41.496 14.04 40.248 13.968 39 13.92C37.8 13.824 36.768 13.776 35.904 13.776C34.368 13.776 32.808 13.824 31.224 13.92C29.688 14.016 28.128 14.16 26.544 14.352C25.872 15.744 25.128 17.4 24.312 19.32C23.496 21.192 22.68 23.16 21.864 25.224C21.096 27.288 20.352 29.352 19.632 31.416C18.912 33.432 18.288 35.256 17.76 36.888C16.704 40.056 15.768 42.984 14.952 45.672C14.184 48.36 13.488 50.88 12.864 53.232C12.288 55.536 11.784 57.744 11.352 59.856C10.92 61.968 10.536 64.032 10.2 66.048C6.984 65.568 4.296 63.552 2.136 60C2.52 58.512 2.976 56.904 3.504 55.176C4.08 53.4 4.728 51.408 5.448 49.2C6.216 46.944 7.104 44.4 8.112 41.568C9.12 38.736 10.272 35.52 11.568 31.92C12.048 30.576 12.552 29.184 13.08 27.744C13.608 26.256 14.112 24.792 14.592 23.352C15.12 21.912 15.576 20.52 15.96 19.176C16.392 17.832 16.752 16.608 17.04 15.504C15.024 15.744 13.104 15.96 11.28 16.152C9.504 16.296 7.92 16.368 6.528 16.368ZM33.1854 58.776C33.1854 57.096 33.3534 55.128 33.6894 52.872C34.0254 50.568 34.5054 48.12 35.1294 45.528C35.8014 42.936 36.5694 40.224 37.4334 37.392C38.3454 34.56 39.3534 31.728 40.4574 28.896C41.4174 26.352 42.5214 23.784 43.7694 21.192C45.0654 18.6 46.4574 16.056 47.9454 13.56C49.4334 11.064 50.9694 8.688 52.5534 6.432C54.1854 4.176 55.8174 2.112 57.4494 0.239997C58.2174 0.239997 59.0334 0.335997 59.8974 0.527997C60.8094 0.719998 61.6734 0.983997 62.4894 1.32C63.3534 1.608 64.1214 1.968 64.7934 2.4C65.5134 2.832 66.0894 3.264 66.5214 3.696C62.9214 7.392 59.6814 11.136 56.8014 14.928C53.9214 18.672 51.6414 22.2 49.9614 25.512C49.0494 27.336 48.2094 29.04 47.4414 30.624C46.7214 32.208 46.0494 33.792 45.4254 35.376C44.8014 36.912 44.2254 38.472 43.6974 40.056C43.2174 41.592 42.7614 43.224 42.3294 44.952C51.5454 33.192 58.3854 27.312 62.8494 27.312C64.0974 27.312 65.4414 27.72 66.8814 28.536C68.3214 29.352 69.5934 30.456 70.6974 31.848C69.2094 33.48 67.6734 35.448 66.0894 37.752C64.5054 40.056 63.0414 42.384 61.6974 44.736C60.4014 47.04 59.3214 49.2 58.4574 51.216C57.6414 53.184 57.2334 54.648 57.2334 55.608C57.2334 56.088 57.3054 56.424 57.4494 56.616C57.5934 56.76 57.9054 56.832 58.3854 56.832C59.1054 56.832 59.6814 56.736 60.1134 56.544C60.5454 56.352 60.8094 56.256 60.9054 56.256C61.1454 56.64 61.2894 56.904 61.3374 57.048C61.3854 57.192 61.4094 57.312 61.4094 57.408C61.4094 57.6 61.1214 57.888 60.5454 58.272C59.9694 58.608 59.2734 58.968 58.4574 59.352C57.6894 59.688 56.9214 60 56.1534 60.288C55.3854 60.576 54.8094 60.72 54.4254 60.72C53.9454 60.72 53.4654 60.576 52.9854 60.288C52.5054 60.048 52.0734 59.712 51.6894 59.28C51.3534 58.848 51.0654 58.368 50.8254 57.84C50.6334 57.312 50.5374 56.76 50.5374 56.184C50.5374 55.464 50.7294 54.408 51.1134 53.016C51.5454 51.576 52.1214 49.92 52.8414 48.048C53.5614 46.128 54.4254 44.04 55.4334 41.784C56.4414 39.528 57.5214 37.224 58.6734 34.872C58.6734 34.68 58.5774 34.584 58.3854 34.584C58.2414 34.584 57.8574 34.776 57.2334 35.16C56.6574 35.544 56.1054 35.928 55.5774 36.312C53.8494 37.608 52.0974 39.216 50.3214 41.136C48.5934 43.008 46.8894 45.072 45.2094 47.328C43.5774 49.584 42.0174 51.984 40.5294 54.528C39.0894 57.024 37.8414 59.544 36.7854 62.088C36.6414 62.424 36.4254 62.736 36.1374 63.024C35.8494 63.312 35.6094 63.456 35.4174 63.456C35.2734 63.456 35.0574 63.288 34.7694 62.952C34.5294 62.616 34.2894 62.184 34.0494 61.656C33.8574 61.176 33.6654 60.672 33.4734 60.144C33.2814 59.616 33.1854 59.16 33.1854 58.776ZM95.2928 30.912C95.7728 30.912 96.3248 31.008 96.9488 31.2C97.6208 31.344 98.2208 31.56 98.7488 31.848C99.2768 32.088 99.7088 32.352 100.045 32.64C100.429 32.928 100.621 33.192 100.621 33.432C99.6608 35.448 98.7728 37.488 97.9568 39.552C97.1408 41.568 96.4448 43.512 95.8688 45.384C95.2928 47.256 94.8368 49.008 94.5008 50.64C94.2128 52.272 94.0688 53.688 94.0688 54.888C94.0688 56.232 94.2128 57.36 94.5008 58.272C94.7888 59.136 95.2688 59.76 95.9408 60.144C95.3648 60.528 94.6208 60.84 93.7088 61.08C92.7968 61.32 91.9808 61.44 91.2608 61.44C88.6688 61.44 87.3728 59.664 87.3728 56.112C87.3728 53.376 88.2848 49.632 90.1088 44.88C89.1488 47.088 88.0448 49.176 86.7968 51.144C85.5488 53.064 84.2768 54.768 82.9808 56.256C81.6848 57.744 80.3648 58.968 79.0208 59.928C77.7248 60.84 76.5248 61.392 75.4208 61.584C73.6448 61.488 72.2048 60.648 71.1008 59.064C69.9968 57.432 69.4448 55.368 69.4448 52.872C69.4448 50.184 70.0208 47.352 71.1728 44.376C72.3248 41.4 73.7888 38.64 75.5648 36.096C77.3888 33.552 79.3568 31.44 81.4688 29.76C83.5807 28.032 85.6208 27.12 87.5888 27.024C88.0688 27.168 88.5968 27.456 89.1728 27.888C89.7968 28.32 90.3728 28.824 90.9008 29.4C91.4768 29.976 91.9568 30.576 92.3408 31.2C92.7248 31.776 92.9408 32.28 92.9888 32.712C91.0688 33 89.0768 33.936 87.0128 35.52C84.9968 37.104 83.1488 39.024 81.4688 41.28C79.8368 43.488 78.4928 45.864 77.4368 48.408C76.3808 50.952 75.8528 53.328 75.8528 55.536C75.8528 56.448 76.1888 57.024 76.8608 57.264C78.2528 56.976 79.8608 55.8 81.6848 53.736C83.5088 51.624 85.7168 48.384 88.3088 44.016C88.7888 43.152 89.3168 42.192 89.8928 41.136C90.5168 40.08 91.1408 38.976 91.7648 37.824C92.3888 36.672 92.9888 35.52 93.5648 34.368C94.1888 33.168 94.7648 32.016 95.2928 30.912ZM115.937 25.08C117.185 25.464 118.361 26.328 119.465 27.672C120.569 28.968 121.385 30.408 121.913 31.992C121.385 33.288 120.569 34.848 119.465 36.672C118.361 38.496 117.257 40.368 116.153 42.288C115.049 44.16 114.041 45.96 113.129 47.688C112.265 49.368 111.761 50.76 111.617 51.864C112.385 51.048 113.225 50.112 114.137 49.056C115.097 47.952 116.009 46.872 116.873 45.816C117.785 44.712 118.625 43.728 119.393 42.864C120.161 41.952 120.761 41.28 121.193 40.848C122.105 39.888 123.185 38.784 124.433 37.536C125.681 36.24 126.977 35.04 128.321 33.936C129.713 32.784 131.105 31.824 132.497 31.056C133.889 30.24 135.161 29.832 136.313 29.832C137.561 29.832 138.593 30.264 139.409 31.128C140.273 31.944 140.945 32.808 141.425 33.72C141.425 33.816 141.233 33.96 140.849 34.152C140.513 34.296 140.009 34.752 139.337 35.52C138.665 36.384 137.897 37.584 137.033 39.12C136.217 40.608 135.401 42.24 134.585 44.016C133.817 45.744 133.169 47.52 132.641 49.344C132.113 51.168 131.849 52.824 131.849 54.312C131.849 55.512 131.993 56.28 132.281 56.616C132.617 56.952 133.073 57.12 133.649 57.12C134.177 57.12 134.729 57 135.305 56.76C135.881 56.52 136.337 56.4 136.673 56.4C136.865 56.496 137.009 56.712 137.105 57.048C137.249 57.336 137.321 57.6 137.321 57.84C136.937 58.176 136.481 58.512 135.953 58.848C135.425 59.184 134.873 59.496 134.297 59.784C133.721 60.072 133.145 60.312 132.569 60.504C132.041 60.696 131.561 60.792 131.129 60.792C129.737 60.792 128.585 60.576 127.673 60.144C126.809 59.76 126.113 59.232 125.585 58.56C125.105 57.888 124.769 57.096 124.577 56.184C124.385 55.224 124.289 54.216 124.289 53.16C124.289 52.584 124.337 51.936 124.433 51.216C124.529 50.496 124.721 49.656 125.009 48.696C125.297 47.688 125.705 46.512 126.233 45.168C126.761 43.776 127.433 42.12 128.249 40.2C128.153 40.2 127.505 40.536 126.305 41.208C125.105 41.88 123.809 42.912 122.417 44.304C120.161 46.464 118.121 48.6 116.297 50.712C114.521 52.824 112.697 55.176 110.825 57.768C109.769 59.256 108.833 60.504 108.017 61.512C107.249 62.568 106.577 63.264 106.001 63.6C104.993 63.024 104.249 62.208 103.769 61.152C103.289 60.144 102.929 59.088 102.689 57.984C102.689 57.072 102.809 55.92 103.049 54.528C103.337 53.136 103.697 51.6 104.129 49.92C104.609 48.192 105.185 46.392 105.857 44.52C106.529 42.648 107.273 40.776 108.089 38.904C109.913 34.68 111.569 31.368 113.057 28.968C114.593 26.568 115.553 25.272 115.937 25.08ZM143.3 53.232C143.3 51.504 143.732 49.104 144.596 46.032C145.508 42.96 146.684 39.6 148.124 35.952C149.564 32.304 151.196 28.536 153.02 24.648C154.844 20.76 156.668 17.136 158.492 13.776C160.364 10.416 162.14 7.512 163.82 5.064C165.548 2.616 167.012 0.959999 168.212 0.0959988C168.884 0.143998 169.604 0.431997 170.372 0.959996C171.188 1.488 171.932 2.136 172.604 2.904C173.276 3.624 173.828 4.392 174.26 5.208C174.74 6.024 174.98 6.768 174.98 7.44C172.82 9.168 170.612 11.4 168.356 14.136C166.148 16.824 164.036 19.8 162.02 23.064C160.004 26.28 158.132 29.712 156.404 33.36C154.724 36.96 153.308 40.512 152.156 44.016C153.692 41.376 155.3 38.976 156.98 36.816C158.66 34.656 160.34 32.808 162.02 31.272C163.7 29.736 165.332 28.56 166.916 27.744C168.548 26.88 170.084 26.424 171.524 26.376C173.636 27.912 174.692 29.952 174.692 32.496C174.692 34.032 174.38 35.592 173.756 37.176C173.132 38.712 172.292 40.152 171.236 41.496C170.228 42.792 169.052 43.92 167.708 44.88C166.412 45.792 165.044 46.392 163.604 46.68C164.084 48.36 164.684 50.064 165.404 51.792C166.172 53.52 167.06 55.2 168.068 56.832C169.124 58.464 170.3 59.976 171.596 61.368C172.94 62.76 174.452 63.936 176.132 64.896C175.892 65.376 175.532 65.856 175.052 66.336C174.572 66.816 173.996 67.224 173.324 67.56C172.652 67.944 171.908 68.232 171.092 68.424C170.324 68.664 169.556 68.784 168.788 68.784C167.492 68.784 166.268 68.136 165.116 66.84C164.012 65.544 163.004 63.672 162.092 61.224C161.372 59.256 160.676 56.904 160.004 54.168C159.332 51.432 158.732 48.576 158.204 45.6C158.876 45.168 159.716 44.544 160.724 43.728C161.732 42.864 162.788 41.88 163.892 40.776C168.116 36.696 170.228 33.168 170.228 30.192C170.228 29.808 169.964 29.616 169.436 29.616C168.476 29.664 167.348 30.12 166.052 30.984C164.756 31.848 163.364 33.048 161.876 34.584C160.436 36.12 158.948 37.92 157.412 39.984C155.924 42.048 154.484 44.28 153.092 46.68C152.516 47.64 151.988 48.744 151.508 49.992C151.028 51.24 150.596 52.536 150.212 53.88C149.876 55.176 149.612 56.472 149.42 57.768C149.228 59.064 149.132 60.264 149.132 61.368C149.132 62.04 149.204 62.592 149.348 63.024C147.86 62.88 146.948 62.496 146.612 61.872C146.228 61.296 145.892 60.816 145.604 60.432C145.364 60.096 145.1 59.808 144.812 59.568C144.38 59.232 144.02 58.512 143.732 57.408C143.444 56.304 143.3 54.912 143.3 53.232ZM224.293 35.16C227.893 31.224 231.109 27.048 233.941 22.632C236.821 18.216 239.485 13.248 241.933 7.728C243.181 7.872 244.381 8.208 245.533 8.736C246.685 9.264 247.597 9.864 248.269 10.536C245.629 13.704 243.229 16.584 241.069 19.176C238.957 21.768 237.013 24.216 235.237 26.52C233.461 28.776 231.805 30.96 230.269 33.072C228.781 35.136 227.317 37.224 225.877 39.336C225.157 41.784 224.485 44.256 223.861 46.752C223.237 49.248 222.685 51.648 222.205 53.952C221.725 56.208 221.341 58.296 221.053 60.216C220.813 62.184 220.693 63.864 220.693 65.256C220.165 65.256 219.325 65.136 218.173 64.896C217.021 64.704 215.845 64.464 214.645 64.176C213.445 63.888 212.341 63.6 211.333 63.312C210.373 63.024 209.797 62.784 209.605 62.592C210.373 61.296 211.117 59.712 211.837 57.84C212.605 55.92 213.349 53.928 214.069 51.864C214.789 49.752 215.485 47.64 216.157 45.528C216.829 43.368 217.453 41.376 218.029 39.552C216.829 35.808 215.653 32.304 214.501 29.04C213.397 25.728 212.317 22.752 211.261 20.112C210.205 17.424 209.197 15.12 208.237 13.2C207.277 11.28 206.365 9.816 205.501 8.808C205.981 8.616 206.701 8.424 207.661 8.232C208.669 8.04 209.749 7.848 210.901 7.656C212.101 7.464 213.301 7.32 214.501 7.224C215.749 7.08 216.853 6.984 217.813 6.936C217.813 8.136 217.909 9.6 218.101 11.328C218.341 13.056 218.629 14.904 218.965 16.872C219.349 18.84 219.781 20.832 220.261 22.848C220.741 24.864 221.221 26.712 221.701 28.392C222.181 30.072 222.637 31.536 223.069 32.784C223.549 33.984 223.957 34.776 224.293 35.16ZM244.253 62.52C241.517 62.232 239.333 61.032 237.701 58.92C236.069 56.808 235.253 54.12 235.253 50.856C235.253 48.936 235.541 46.944 236.117 44.88C236.693 42.816 237.509 40.824 238.565 38.904C239.621 36.936 240.869 35.088 242.309 33.36C243.749 31.632 245.309 30.144 246.989 28.896C249.629 26.928 252.101 25.944 254.405 25.944C255.941 26.76 257.453 28.464 258.941 31.056C259.181 31.056 259.397 31.056 259.589 31.056C259.781 31.008 259.997 30.984 260.237 30.984C262.781 30.984 264.053 33.24 264.053 37.752C264.053 40.776 263.549 43.656 262.541 46.392C261.581 49.08 260.213 51.528 258.437 53.736C256.709 55.944 254.621 57.816 252.173 59.352C249.773 60.84 247.133 61.896 244.253 62.52ZM247.925 39.84C247.109 40.944 246.341 42.144 245.621 43.44C244.901 44.736 244.277 46.056 243.749 47.4C243.221 48.696 242.813 49.968 242.525 51.216C242.237 52.416 242.093 53.496 242.093 54.456C242.093 55.608 242.285 56.712 242.669 57.768C243.053 58.824 243.485 59.424 243.965 59.568C246.125 59.088 248.093 58.2 249.869 56.904C251.693 55.56 253.253 53.904 254.549 51.936C255.893 49.968 256.925 47.736 257.645 45.24C258.413 42.744 258.797 40.08 258.797 37.248C258.797 36 258.725 35.016 258.581 34.296C258.437 33.576 258.197 32.952 257.861 32.424C255.749 33.048 253.853 34.056 252.173 35.448C250.541 36.84 249.125 38.304 247.925 39.84ZM287.123 58.416C286.211 57.648 285.587 56.688 285.251 55.536C284.963 54.384 284.819 53.4 284.819 52.584C284.819 51.576 284.939 50.712 285.179 49.992C284.987 49.992 284.555 50.376 283.883 51.144C283.211 51.912 282.467 52.824 281.651 53.88C280.883 54.936 280.115 55.968 279.347 56.976C278.579 57.984 278.003 58.728 277.619 59.208C276.995 59.88 276.395 60.408 275.819 60.792C275.291 61.176 274.859 61.392 274.523 61.44C273.755 61.392 272.939 61.224 272.075 60.936C271.259 60.696 270.467 60.336 269.699 59.856C268.979 59.376 268.331 58.8 267.755 58.128C267.227 57.456 266.867 56.688 266.675 55.824C266.675 54.48 266.699 53.376 266.747 52.512C266.843 51.648 267.011 50.712 267.251 49.704C267.683 47.88 268.307 45.816 269.123 43.512C269.987 41.208 270.971 38.952 272.075 36.744C273.179 34.488 274.403 32.4 275.747 30.48C277.139 28.512 278.603 26.976 280.139 25.872C280.571 25.872 281.075 25.92 281.651 26.016C282.227 26.064 282.803 26.184 283.379 26.376C284.003 26.568 284.579 26.808 285.107 27.096C285.683 27.336 286.163 27.672 286.547 28.104C286.115 28.584 285.011 30.192 283.235 32.928C281.507 35.664 279.563 39.6 277.403 44.736C277.163 45.264 276.875 46.032 276.539 47.04C276.203 48.048 275.867 49.104 275.531 50.208C275.195 51.312 274.907 52.392 274.667 53.448C274.475 54.504 274.379 55.344 274.379 55.968C274.379 56.352 274.427 56.64 274.523 56.832C274.667 57.024 274.787 57.168 274.883 57.264C275.603 56.976 276.515 56.184 277.619 54.888C278.723 53.592 280.259 51.6 282.227 48.912C282.707 48.24 283.259 47.472 283.883 46.608C284.555 45.744 285.227 44.832 285.899 43.872C286.571 42.864 287.195 41.832 287.771 40.776C288.395 39.72 288.899 38.664 289.283 37.608C289.475 37.032 289.715 36.36 290.003 35.592C290.339 34.776 290.723 33.936 291.155 33.072C291.635 32.208 292.163 31.344 292.739 30.48C293.363 29.568 294.083 28.728 294.899 27.96C295.523 27.96 296.195 28.032 296.915 28.176C297.635 28.32 298.307 28.512 298.931 28.752C299.603 28.944 300.179 29.184 300.659 29.472C301.139 29.712 301.499 29.976 301.739 30.264C300.875 32.376 299.915 34.464 298.859 36.528C297.803 38.592 296.819 40.632 295.907 42.648C294.995 44.616 294.227 46.584 293.603 48.552C292.979 50.52 292.667 52.44 292.667 54.312C292.667 55.32 292.739 56.208 292.883 56.976C293.075 57.696 293.267 58.32 293.459 58.848C293.651 59.328 293.819 59.736 293.963 60.072C294.155 60.408 294.251 60.696 294.251 60.936C294.251 60.984 294.203 61.056 294.107 61.152C294.059 61.2 294.011 61.224 293.963 61.224C293.627 61.224 293.195 61.152 292.667 61.008C292.139 60.864 291.539 60.648 290.867 60.36C290.243 60.12 289.595 59.832 288.923 59.496C288.299 59.16 287.699 58.8 287.123 58.416ZM306.429 46.464C306.429 45.168 306.765 43.296 307.437 40.848C308.157 38.352 309.069 35.616 310.173 32.64C311.277 29.616 312.525 26.52 313.917 23.352C315.309 20.136 316.701 17.136 318.093 14.352C319.533 11.568 320.901 9.168 322.197 7.152C323.493 5.088 324.621 3.72 325.581 3.048C326.349 3.192 327.165 3.552 328.029 4.128C328.941 4.656 329.781 5.28 330.549 6C331.317 6.672 331.989 7.392 332.565 8.16C333.141 8.928 333.477 9.6 333.573 10.176C331.125 12.192 328.701 14.712 326.301 17.736C323.901 20.712 321.669 24.024 319.605 27.672C317.589 31.32 315.813 35.232 314.277 39.408C312.741 43.536 311.589 47.76 310.821 52.08C310.245 51.936 309.669 51.768 309.093 51.576C308.565 51.336 308.109 51.024 307.725 50.64C307.341 50.256 307.029 49.728 306.789 49.056C306.549 48.384 306.429 47.52 306.429 46.464ZM304.845 65.544C304.269 65.544 303.717 65.4 303.189 65.112C302.661 64.872 302.181 64.56 301.749 64.176C301.365 63.84 301.053 63.456 300.813 63.024C300.573 62.64 300.453 62.328 300.453 62.088C300.453 61.512 300.525 60.768 300.669 59.856C300.813 58.944 301.029 58.08 301.317 57.264C301.605 56.4 301.965 55.68 302.397 55.104C302.829 54.48 303.309 54.168 303.837 54.168C305.181 54.168 306.525 54.648 307.869 55.608C309.261 56.52 310.293 57.552 310.965 58.704C310.389 59.328 309.885 60.024 309.453 60.792C309.021 61.608 308.589 62.352 308.157 63.024C307.725 63.744 307.245 64.344 306.717 64.824C306.189 65.304 305.565 65.544 304.845 65.544Z" fill="#6A5959"/>
</svg>
