<svg width="69" height="69" viewBox="0 0 69 69" fill="none" xmlns="http://www.w3.org/2000/svg">
<path d="M26.8555 42H15.1602V39.6797L20.6797 33.7969C21.4375 32.9688 21.9961 32.2461 22.3555 31.6289C22.7227 31.0117 22.9062 30.4258 22.9062 29.8711C22.9062 29.1133 22.7148 28.5195 22.332 28.0898C21.9492 27.6523 21.4023 27.4336 20.6914 27.4336C19.9258 27.4336 19.3203 27.6992 18.875 28.2305C18.4375 28.7539 18.2188 29.4453 18.2188 30.3047H14.8203C14.8203 29.2656 15.0664 28.3164 15.5586 27.457C16.0586 26.5977 16.7617 25.9258 17.668 25.4414C18.5742 24.9492 19.6016 24.7031 20.75 24.7031C22.5078 24.7031 23.8711 25.125 24.8398 25.9688C25.8164 26.8125 26.3047 28.0039 26.3047 29.543C26.3047 30.3867 26.0859 31.2461 25.6484 32.1211C25.2109 32.9961 24.4609 34.0156 23.3984 35.1797L19.5195 39.2695H26.8555V42ZM38.9609 35.5781H40.8945V38.3086H38.9609V42H35.5742V38.3086H28.5781L28.4258 36.1758L35.5391 24.9375H38.9609V35.5781ZM31.8008 35.5781H35.5742V29.5547L35.3516 29.9414L31.8008 35.5781ZM46.168 30.7031C47.0664 29.625 48.1953 29.0859 49.5547 29.0859C52.3047 29.0859 53.6992 30.6836 53.7383 33.8789V42H50.3516V33.9727C50.3516 33.2461 50.1953 32.7109 49.8828 32.3672C49.5703 32.0156 49.0508 31.8398 48.3242 31.8398C47.332 31.8398 46.6133 32.2227 46.168 32.9883V42H42.7812V24H46.168V30.7031Z" fill="#6A5959"/>
<path d="M69 34.5C69 42.4818 66.2324 50.2166 61.1689 56.3866C56.1053 62.5565 49.059 66.7799 41.2306 68.3371C33.4022 69.8943 25.2761 68.6889 18.2368 64.9263C11.1975 61.1637 5.68064 55.0768 2.62616 47.7026C-0.42833 40.3284 -0.831424 32.1232 1.48556 24.4852C3.80254 16.8471 8.69624 10.2487 15.3328 5.8143C21.9694 1.37987 29.9383 -0.616221 37.8816 0.166127C45.8249 0.948474 53.2512 4.46086 58.8952 10.1048L53.3218 15.6782C48.9673 11.3236 43.2376 8.6137 37.109 8.01009C30.9804 7.40648 24.8322 8.94654 19.7118 12.3679C14.5914 15.7892 10.8157 20.8801 9.02808 26.7732C7.24044 32.6662 7.55144 38.9968 9.9081 44.6863C12.2648 50.3758 16.5212 55.0721 21.9523 57.9751C27.3834 60.878 33.653 61.808 39.6929 60.6066C45.7328 59.4052 51.1693 56.1467 55.0761 51.3863C58.9828 46.626 61.1181 40.6582 61.1181 34.5H69Z" fill="#6A5959"/>
<path d="M61 18V3L46 18H61Z" fill="#6A5959"/>
</svg>
